<svg width="103" height="11" viewBox="0 0 103 11" fill="none" xmlns="http://www.w3.org/2000/svg">
<path d="M4.03809 1.50098C3.25358 1.50098 2.63346 1.76302 2.17773 2.28711C1.72526 2.80794 1.49902 3.52246 1.49902 4.43066C1.49902 5.36491 1.71712 6.08757 2.15332 6.59863C2.59277 7.10645 3.21777 7.36035 4.02832 7.36035C4.52637 7.36035 5.0944 7.27083 5.73242 7.0918V7.81934C5.23763 8.00488 4.62728 8.09766 3.90137 8.09766C2.84993 8.09766 2.03776 7.77865 1.46484 7.14062C0.895182 6.5026 0.610352 5.59603 0.610352 4.4209C0.610352 3.68522 0.74707 3.04069 1.02051 2.4873C1.2972 1.93392 1.69434 1.50749 2.21191 1.20801C2.73275 0.908529 3.34473 0.758789 4.04785 0.758789C4.79655 0.758789 5.45085 0.895508 6.01074 1.16895L5.65918 1.88184C5.11882 1.62793 4.57845 1.50098 4.03809 1.50098ZM7.92969 2.64844V6.12012C7.92969 6.55632 8.02897 6.88184 8.22754 7.09668C8.42611 7.31152 8.73698 7.41895 9.16016 7.41895C9.72005 7.41895 10.1286 7.26595 10.3857 6.95996C10.6462 6.65397 10.7764 6.1543 10.7764 5.46094V2.64844H11.5869V8H10.918L10.8008 7.28223H10.7568C10.5908 7.5459 10.3597 7.74772 10.0635 7.8877C9.77051 8.02767 9.43522 8.09766 9.05762 8.09766C8.40658 8.09766 7.91829 7.94303 7.59277 7.63379C7.27051 7.32454 7.10938 6.82975 7.10938 6.14941V2.64844H7.92969ZM14.1113 5.26074C14.2513 5.06217 14.4645 4.80176 14.751 4.47949L16.4795 2.64844H17.4414L15.2734 4.92871L17.5928 8H16.6113L14.7217 5.4707L14.1113 5.99805V8H13.3105V0.402344H14.1113V4.43066C14.1113 4.6097 14.0983 4.88639 14.0723 5.26074H14.1113ZM21.0059 2.55078C21.2435 2.55078 21.4567 2.57031 21.6455 2.60938L21.5332 3.36133C21.3118 3.3125 21.1165 3.28809 20.9473 3.28809C20.5143 3.28809 20.1432 3.46387 19.834 3.81543C19.528 4.16699 19.375 4.60482 19.375 5.12891V8H18.5645V2.64844H19.2334L19.3262 3.63965H19.3652C19.5638 3.29134 19.8031 3.02279 20.083 2.83398C20.363 2.64518 20.6706 2.55078 21.0059 2.55078ZM25.9375 8L25.7764 7.23828H25.7373C25.4704 7.57357 25.2035 7.80143 24.9365 7.92188C24.6729 8.03906 24.3424 8.09766 23.9453 8.09766C23.4147 8.09766 22.998 7.96094 22.6953 7.6875C22.3958 7.41406 22.2461 7.02507 22.2461 6.52051C22.2461 5.43978 23.1104 4.87337 24.8389 4.82129L25.7471 4.79199V4.45996C25.7471 4.04004 25.6559 3.73079 25.4736 3.53223C25.2946 3.3304 25.0065 3.22949 24.6094 3.22949C24.1634 3.22949 23.6589 3.36621 23.0957 3.63965L22.8467 3.01953C23.1104 2.8763 23.3984 2.764 23.7109 2.68262C24.0267 2.60124 24.3424 2.56055 24.6582 2.56055C25.2962 2.56055 25.7682 2.70215 26.0742 2.98535C26.3835 3.26855 26.5381 3.72266 26.5381 4.34766V8H25.9375ZM24.1064 7.42871C24.611 7.42871 25.0065 7.29036 25.293 7.01367C25.5827 6.73698 25.7275 6.34961 25.7275 5.85156V5.36816L24.917 5.40234C24.2725 5.42513 23.807 5.52604 23.5205 5.70508C23.2373 5.88086 23.0957 6.15592 23.0957 6.53027C23.0957 6.82324 23.1836 7.04622 23.3594 7.19922C23.5384 7.35221 23.7874 7.42871 24.1064 7.42871ZM28.9746 2.64844V6.12012C28.9746 6.55632 29.0739 6.88184 29.2725 7.09668C29.471 7.31152 29.7819 7.41895 30.2051 7.41895C30.765 7.41895 31.1735 7.26595 31.4307 6.95996C31.6911 6.65397 31.8213 6.1543 31.8213 5.46094V2.64844H32.6318V8H31.9629L31.8457 7.28223H31.8018C31.6357 7.5459 31.4046 7.74772 31.1084 7.8877C30.8154 8.02767 30.4801 8.09766 30.1025 8.09766C29.4515 8.09766 28.9632 7.94303 28.6377 7.63379C28.3154 7.32454 28.1543 6.82975 28.1543 6.14941V2.64844H28.9746ZM37.8076 6.54004C37.8076 7.03809 37.6221 7.4222 37.251 7.69238C36.8799 7.96257 36.359 8.09766 35.6885 8.09766C34.9788 8.09766 34.4255 7.98535 34.0283 7.76074V7.00879C34.2855 7.139 34.5605 7.24154 34.8535 7.31641C35.1497 7.39128 35.4346 7.42871 35.708 7.42871C36.1312 7.42871 36.4567 7.36198 36.6846 7.22852C36.9124 7.0918 37.0264 6.88509 37.0264 6.6084C37.0264 6.40007 36.9352 6.22266 36.7529 6.07617C36.5739 5.92643 36.2223 5.75065 35.6982 5.54883C35.2002 5.36328 34.8454 5.20215 34.6338 5.06543C34.4255 4.92546 34.2692 4.76758 34.165 4.5918C34.0641 4.41602 34.0137 4.20605 34.0137 3.96191C34.0137 3.52572 34.1911 3.18229 34.5459 2.93164C34.9007 2.67773 35.3874 2.55078 36.0059 2.55078C36.582 2.55078 37.1452 2.66797 37.6953 2.90234L37.4072 3.56152C36.8701 3.34017 36.3835 3.22949 35.9473 3.22949C35.5632 3.22949 35.2734 3.28971 35.0781 3.41016C34.8828 3.5306 34.7852 3.69661 34.7852 3.9082C34.7852 4.05143 34.821 4.1735 34.8926 4.27441C34.9674 4.37533 35.0863 4.47135 35.249 4.5625C35.4118 4.65365 35.7243 4.78548 36.1865 4.95801C36.8213 5.18913 37.2493 5.42188 37.4707 5.65625C37.6953 5.89062 37.8076 6.18522 37.8076 6.54004ZM39.0137 7.48242C39.0137 7.26432 39.0625 7.09993 39.1602 6.98926C39.2611 6.87533 39.4043 6.81836 39.5898 6.81836C39.7786 6.81836 39.9251 6.87533 40.0293 6.98926C40.1367 7.09993 40.1904 7.26432 40.1904 7.48242C40.1904 7.69401 40.1367 7.85677 40.0293 7.9707C39.9219 8.08464 39.7754 8.1416 39.5898 8.1416C39.4238 8.1416 39.2855 8.09115 39.1748 7.99023C39.0674 7.88607 39.0137 7.7168 39.0137 7.48242ZM39.0137 3.1709C39.0137 2.73145 39.2057 2.51172 39.5898 2.51172C39.9902 2.51172 40.1904 2.73145 40.1904 3.1709C40.1904 3.38249 40.1367 3.54525 40.0293 3.65918C39.9219 3.77311 39.7754 3.83008 39.5898 3.83008C39.4238 3.83008 39.2855 3.77962 39.1748 3.67871C39.0674 3.57454 39.0137 3.40527 39.0137 3.1709ZM48.9258 8H43.9355V6.9502L45.7275 5.13867C46.2581 4.59505 46.6048 4.21908 46.7676 4.01074C46.9303 3.79915 47.0475 3.60384 47.1191 3.4248C47.1908 3.24577 47.2266 3.06022 47.2266 2.86816C47.2266 2.58171 47.1468 2.36849 46.9873 2.22852C46.8311 2.08854 46.6211 2.01855 46.3574 2.01855C46.0807 2.01855 45.8122 2.08203 45.5518 2.20898C45.2913 2.33594 45.0195 2.5166 44.7363 2.75098L43.916 1.7793C44.2676 1.47982 44.5589 1.26823 44.79 1.14453C45.0212 1.02083 45.2734 0.926432 45.5469 0.861328C45.8203 0.792969 46.1263 0.758789 46.4648 0.758789C46.9108 0.758789 47.3047 0.840169 47.6465 1.00293C47.9883 1.16569 48.2536 1.39355 48.4424 1.68652C48.6312 1.97949 48.7256 2.31478 48.7256 2.69238C48.7256 3.02116 48.667 3.3304 48.5498 3.62012C48.4359 3.90658 48.2568 4.20117 48.0127 4.50391C47.7718 4.80664 47.3454 5.23796 46.7334 5.79785L45.8154 6.66211V6.73047H48.9258V8ZM56.4355 6.37891C56.4355 6.9388 56.2402 7.36523 55.8496 7.6582C55.4622 7.95117 54.8812 8.09766 54.1064 8.09766C53.7093 8.09766 53.3708 8.06999 53.0908 8.01465C52.8109 7.96257 52.5488 7.88444 52.3047 7.78027V6.5498C52.5814 6.68001 52.8923 6.78906 53.2373 6.87695C53.5856 6.96484 53.8916 7.00879 54.1553 7.00879C54.6956 7.00879 54.9658 6.85254 54.9658 6.54004C54.9658 6.42285 54.93 6.32845 54.8584 6.25684C54.7868 6.18197 54.6631 6.09896 54.4873 6.00781C54.3115 5.91341 54.0771 5.80436 53.7842 5.68066C53.3643 5.50488 53.055 5.34212 52.8564 5.19238C52.6611 5.04264 52.5179 4.87174 52.4268 4.67969C52.3389 4.48438 52.2949 4.24512 52.2949 3.96191C52.2949 3.47689 52.4821 3.10254 52.8564 2.83887C53.234 2.57194 53.7679 2.43848 54.458 2.43848C55.1156 2.43848 55.7552 2.58171 56.377 2.86816L55.9277 3.94238C55.6543 3.8252 55.3988 3.72917 55.1611 3.6543C54.9235 3.57943 54.681 3.54199 54.4336 3.54199C53.9941 3.54199 53.7744 3.66081 53.7744 3.89844C53.7744 4.0319 53.8444 4.14746 53.9844 4.24512C54.1276 4.34277 54.4385 4.48763 54.917 4.67969C55.3434 4.85221 55.6559 5.01335 55.8545 5.16309C56.0531 5.31283 56.1995 5.48535 56.2939 5.68066C56.3883 5.87598 56.4355 6.10872 56.4355 6.37891ZM56.5918 0.338867V0.470703C56.3184 0.744141 56.0661 1.01758 55.835 1.29102C55.6071 1.5612 55.4427 1.77767 55.3418 1.94043H53.5986C53.5042 1.78743 53.3691 1.60514 53.1934 1.39355C53.0176 1.17871 52.736 0.871094 52.3486 0.470703V0.338867H53.3398C53.8184 0.641602 54.1911 0.92806 54.458 1.19824C54.7314 0.915039 55.1123 0.628581 55.6006 0.338867H56.5918ZM61.0645 8L60.7764 7.25781H60.7373C60.4867 7.57357 60.2279 7.79329 59.9609 7.91699C59.6973 8.03743 59.3522 8.09766 58.9258 8.09766C58.4017 8.09766 57.9883 7.94792 57.6855 7.64844C57.3861 7.34896 57.2363 6.92253 57.2363 6.36914C57.2363 5.78971 57.4382 5.36328 57.8418 5.08984C58.2487 4.81315 58.8607 4.66016 59.6777 4.63086L60.625 4.60156V4.3623C60.625 3.80892 60.3418 3.53223 59.7754 3.53223C59.3392 3.53223 58.8265 3.66406 58.2373 3.92773L57.7441 2.92188C58.3724 2.5931 59.069 2.42871 59.834 2.42871C60.5664 2.42871 61.1279 2.58822 61.5186 2.90723C61.9092 3.22624 62.1045 3.71126 62.1045 4.3623V8H61.0645ZM60.625 5.4707L60.0488 5.49023C59.6159 5.50326 59.2936 5.58138 59.082 5.72461C58.8704 5.86784 58.7646 6.08594 58.7646 6.37891C58.7646 6.79883 59.0055 7.00879 59.4873 7.00879C59.8324 7.00879 60.1074 6.90951 60.3125 6.71094C60.5208 6.51237 60.625 6.2487 60.625 5.91992V5.4707ZM67.5098 8L67.3096 7.30176H67.2314C67.0719 7.55566 66.8457 7.7526 66.5527 7.89258C66.2598 8.0293 65.9261 8.09766 65.5518 8.09766C64.9105 8.09766 64.4271 7.92676 64.1016 7.58496C63.776 7.23991 63.6133 6.74512 63.6133 6.10059V2.54102H65.1025V5.72949C65.1025 6.12337 65.1725 6.4196 65.3125 6.61816C65.4525 6.81348 65.6755 6.91113 65.9814 6.91113C66.3981 6.91113 66.6992 6.77279 66.8848 6.49609C67.0703 6.21615 67.1631 5.75391 67.1631 5.10938V2.54102H68.6523V8H67.5098ZM71.6455 5.03125L72.2949 4.20117L73.8232 2.54102H75.5029L73.335 4.90918L75.6348 8H73.916L72.3438 5.78809L71.7041 6.30078V8H70.2148V0.402344H71.7041V3.79102L71.626 5.03125H71.6455ZM80.2246 6.37891C80.2246 6.9388 80.0293 7.36523 79.6387 7.6582C79.2513 7.95117 78.6702 8.09766 77.8955 8.09766C77.4984 8.09766 77.1598 8.06999 76.8799 8.01465C76.5999 7.96257 76.3379 7.88444 76.0938 7.78027V6.5498C76.3704 6.68001 76.6813 6.78906 77.0264 6.87695C77.3747 6.96484 77.6807 7.00879 77.9443 7.00879C78.4847 7.00879 78.7549 6.85254 78.7549 6.54004C78.7549 6.42285 78.7191 6.32845 78.6475 6.25684C78.5758 6.18197 78.4521 6.09896 78.2764 6.00781C78.1006 5.91341 77.8662 5.80436 77.5732 5.68066C77.1533 5.50488 76.8441 5.34212 76.6455 5.19238C76.4502 5.04264 76.307 4.87174 76.2158 4.67969C76.1279 4.48438 76.084 4.24512 76.084 3.96191C76.084 3.47689 76.2712 3.10254 76.6455 2.83887C77.0231 2.57194 77.557 2.43848 78.2471 2.43848C78.9046 2.43848 79.5443 2.58171 80.166 2.86816L79.7168 3.94238C79.4434 3.8252 79.1878 3.72917 78.9502 3.6543C78.7126 3.57943 78.4701 3.54199 78.2227 3.54199C77.7832 3.54199 77.5635 3.66081 77.5635 3.89844C77.5635 4.0319 77.6335 4.14746 77.7734 4.24512C77.9167 4.34277 78.2275 4.48763 78.7061 4.67969C79.1325 4.85221 79.445 5.01335 79.6436 5.16309C79.8421 5.31283 79.9886 5.48535 80.083 5.68066C80.1774 5.87598 80.2246 6.10872 80.2246 6.37891ZM80.3809 0.338867V0.470703C80.1074 0.744141 79.8551 1.01758 79.624 1.29102C79.3962 1.5612 79.2318 1.77767 79.1309 1.94043H77.3877C77.2933 1.78743 77.1582 1.60514 76.9824 1.39355C76.8066 1.17871 76.5251 0.871094 76.1377 0.470703V0.338867H77.1289C77.6074 0.641602 77.9801 0.92806 78.2471 1.19824C78.5205 0.915039 78.9014 0.628581 79.3896 0.338867H80.3809ZM83.6865 6.91113C83.9469 6.91113 84.2594 6.85417 84.624 6.74023V7.84863C84.2529 8.01465 83.7972 8.09766 83.2568 8.09766C82.6611 8.09766 82.2266 7.94792 81.9531 7.64844C81.6829 7.3457 81.5479 6.89323 81.5479 6.29102V3.65918H80.835V3.0293L81.6553 2.53125L82.085 1.37891H83.0371V2.54102H84.5654V3.65918H83.0371V6.29102C83.0371 6.5026 83.0957 6.65885 83.2129 6.75977C83.3333 6.86068 83.4912 6.91113 83.6865 6.91113ZM87.9932 3.49805C87.6774 3.49805 87.43 3.59896 87.251 3.80078C87.0719 3.99935 86.9694 4.28255 86.9434 4.65039H89.0332C89.0267 4.28255 88.9307 3.99935 88.7451 3.80078C88.5596 3.59896 88.3089 3.49805 87.9932 3.49805ZM88.2031 8.09766C87.3242 8.09766 86.6374 7.85514 86.1426 7.37012C85.6478 6.88509 85.4004 6.19824 85.4004 5.30957C85.4004 4.39486 85.6283 3.68848 86.084 3.19043C86.543 2.68913 87.1761 2.43848 87.9834 2.43848C88.7549 2.43848 89.3555 2.6582 89.7852 3.09766C90.2148 3.53711 90.4297 4.14421 90.4297 4.91895V5.6416H86.9092C86.9255 6.06478 87.0508 6.39518 87.2852 6.63281C87.5195 6.87044 87.8483 6.98926 88.2715 6.98926C88.6003 6.98926 88.9111 6.95508 89.2041 6.88672C89.4971 6.81836 89.8031 6.70931 90.1221 6.55957V7.71191C89.8617 7.84212 89.5833 7.93815 89.2871 8C88.9909 8.0651 88.6296 8.09766 88.2031 8.09766ZM93.1299 8H91.6406V0.402344H93.1299V8ZM94.6338 1.12988C94.6338 0.644857 94.904 0.402344 95.4443 0.402344C95.9847 0.402344 96.2549 0.644857 96.2549 1.12988C96.2549 1.361 96.1865 1.54167 96.0498 1.67188C95.9163 1.79883 95.7145 1.8623 95.4443 1.8623C94.904 1.8623 94.6338 1.61816 94.6338 1.12988ZM96.1865 8H94.6973V2.54102H96.1865V8ZM101.621 8L101.421 7.30176H101.343C101.183 7.55566 100.957 7.7526 100.664 7.89258C100.371 8.0293 100.037 8.09766 99.6631 8.09766C99.0218 8.09766 98.5384 7.92676 98.2129 7.58496C97.8874 7.23991 97.7246 6.74512 97.7246 6.10059V2.54102H99.2139V5.72949C99.2139 6.12337 99.2839 6.4196 99.4238 6.61816C99.5638 6.81348 99.7868 6.91113 100.093 6.91113C100.509 6.91113 100.811 6.77279 100.996 6.49609C101.182 6.21615 101.274 5.75391 101.274 5.10938V2.54102H102.764V8H101.621ZM101.763 9.1084C101.763 9.24512 101.799 9.34603 101.87 9.41113C101.945 9.47624 102.039 9.50879 102.153 9.50879C102.332 9.50879 102.52 9.47949 102.715 9.4209V10.29C102.448 10.3649 102.194 10.4023 101.953 10.4023C101.585 10.4023 101.289 10.2982 101.064 10.0898C100.843 9.88477 100.732 9.61458 100.732 9.2793C100.732 9.0612 100.794 8.85612 100.918 8.66406C101.042 8.47201 101.273 8.25065 101.611 8H102.485C102.257 8.21484 102.08 8.41016 101.953 8.58594C101.826 8.76497 101.763 8.93913 101.763 9.1084Z" fill="black"/>
</svg>
