<svg width="75" height="11" viewBox="0 0 75 11" fill="none" xmlns="http://www.w3.org/2000/svg">
<path d="M6.1377 8H5.16113L2.55859 4.53809L1.81152 5.20215V8H0.981445V0.861328H1.81152V4.40137L5.04883 0.861328H6.03027L3.15918 3.96191L6.1377 8ZM7.8125 8H7.00195V2.64844H7.8125V8ZM6.93359 1.19824C6.93359 1.0127 6.97917 0.877604 7.07031 0.792969C7.16146 0.705078 7.27539 0.661133 7.41211 0.661133C7.54232 0.661133 7.65462 0.705078 7.74902 0.792969C7.84342 0.880859 7.89062 1.01595 7.89062 1.19824C7.89062 1.38053 7.84342 1.51725 7.74902 1.6084C7.65462 1.69629 7.54232 1.74023 7.41211 1.74023C7.27539 1.74023 7.16146 1.69629 7.07031 1.6084C6.97917 1.51725 6.93359 1.38053 6.93359 1.19824ZM12.8223 8L12.6611 7.23828H12.6221C12.3551 7.57357 12.0882 7.80143 11.8213 7.92188C11.5576 8.03906 11.2272 8.09766 10.8301 8.09766C10.2995 8.09766 9.88281 7.96094 9.58008 7.6875C9.2806 7.41406 9.13086 7.02507 9.13086 6.52051C9.13086 5.43978 9.99512 4.87337 11.7236 4.82129L12.6318 4.79199V4.45996C12.6318 4.04004 12.5407 3.73079 12.3584 3.53223C12.1794 3.3304 11.8913 3.22949 11.4941 3.22949C11.0482 3.22949 10.5436 3.36621 9.98047 3.63965L9.73145 3.01953C9.99512 2.8763 10.2832 2.764 10.5957 2.68262C10.9115 2.60124 11.2272 2.56055 11.543 2.56055C12.181 2.56055 12.653 2.70215 12.959 2.98535C13.2682 3.26855 13.4229 3.72266 13.4229 4.34766V8H12.8223ZM10.9912 7.42871C11.4958 7.42871 11.8913 7.29036 12.1777 7.01367C12.4674 6.73698 12.6123 6.34961 12.6123 5.85156V5.36816L11.8018 5.40234C11.1572 5.42513 10.6917 5.52604 10.4053 5.70508C10.1221 5.88086 9.98047 6.15592 9.98047 6.53027C9.98047 6.82324 10.0684 7.04622 10.2441 7.19922C10.4232 7.35221 10.6722 7.42871 10.9912 7.42871ZM15.8594 2.64844V6.12012C15.8594 6.55632 15.9587 6.88184 16.1572 7.09668C16.3558 7.31152 16.6667 7.41895 17.0898 7.41895C17.6497 7.41895 18.0583 7.26595 18.3154 6.95996C18.5758 6.65397 18.7061 6.1543 18.7061 5.46094V2.64844H19.5166V8H18.8477L18.7305 7.28223H18.6865C18.5205 7.5459 18.2894 7.74772 17.9932 7.8877C17.7002 8.02767 17.3649 8.09766 16.9873 8.09766C16.3363 8.09766 15.848 7.94303 15.5225 7.63379C15.2002 7.32454 15.0391 6.82975 15.0391 6.14941V2.64844H15.8594ZM24.6924 6.54004C24.6924 7.03809 24.5068 7.4222 24.1357 7.69238C23.7646 7.96257 23.2438 8.09766 22.5732 8.09766C21.8636 8.09766 21.3102 7.98535 20.9131 7.76074V7.00879C21.1702 7.139 21.4453 7.24154 21.7383 7.31641C22.0345 7.39128 22.3193 7.42871 22.5928 7.42871C23.016 7.42871 23.3415 7.36198 23.5693 7.22852C23.7972 7.0918 23.9111 6.88509 23.9111 6.6084C23.9111 6.40007 23.82 6.22266 23.6377 6.07617C23.4587 5.92643 23.1071 5.75065 22.583 5.54883C22.085 5.36328 21.7301 5.20215 21.5186 5.06543C21.3102 4.92546 21.154 4.76758 21.0498 4.5918C20.9489 4.41602 20.8984 4.20605 20.8984 3.96191C20.8984 3.52572 21.0758 3.18229 21.4307 2.93164C21.7855 2.67773 22.2721 2.55078 22.8906 2.55078C23.4668 2.55078 24.0299 2.66797 24.5801 2.90234L24.292 3.56152C23.7549 3.34017 23.2682 3.22949 22.832 3.22949C22.4479 3.22949 22.1582 3.28971 21.9629 3.41016C21.7676 3.5306 21.6699 3.69661 21.6699 3.9082C21.6699 4.05143 21.7057 4.1735 21.7773 4.27441C21.8522 4.37533 21.971 4.47135 22.1338 4.5625C22.2965 4.65365 22.609 4.78548 23.0713 4.95801C23.7061 5.18913 24.1341 5.42188 24.3555 5.65625C24.5801 5.89062 24.6924 6.18522 24.6924 6.54004ZM21.1865 0.338867H21.748C22.1191 0.579753 22.4756 0.88737 22.8174 1.26172C23.2406 0.838542 23.6003 0.530924 23.8965 0.338867H24.4775V0.460938L24.1553 0.792969C23.6865 1.27474 23.3773 1.65723 23.2275 1.94043H22.417C22.3421 1.80697 22.2217 1.6377 22.0557 1.43262C21.8896 1.22754 21.5999 0.903646 21.1865 0.460938V0.338867ZM26.8262 8H26.0156V2.64844H26.8262V8ZM25.9473 1.19824C25.9473 1.0127 25.9928 0.877604 26.084 0.792969C26.1751 0.705078 26.2891 0.661133 26.4258 0.661133C26.556 0.661133 26.6683 0.705078 26.7627 0.792969C26.8571 0.880859 26.9043 1.01595 26.9043 1.19824C26.9043 1.38053 26.8571 1.51725 26.7627 1.6084C26.6683 1.69629 26.556 1.74023 26.4258 1.74023C26.2891 1.74023 26.1751 1.69629 26.084 1.6084C25.9928 1.51725 25.9473 1.38053 25.9473 1.19824ZM32.207 8V4.53809C32.207 4.10189 32.1077 3.77637 31.9092 3.56152C31.7106 3.34668 31.3997 3.23926 30.9766 3.23926C30.4167 3.23926 30.0065 3.39062 29.7461 3.69336C29.4857 3.99609 29.3555 4.49577 29.3555 5.19238V8H28.5449V2.64844H29.2041L29.3359 3.38086H29.375C29.541 3.11719 29.7738 2.91374 30.0732 2.77051C30.3727 2.62402 30.7064 2.55078 31.0742 2.55078C31.7188 2.55078 32.2038 2.70703 32.5293 3.01953C32.8548 3.32878 33.0176 3.8252 33.0176 4.50879V8H32.207ZM35.498 8H34.6875V2.64844H35.498V8ZM34.6191 1.19824C34.6191 1.0127 34.6647 0.877604 34.7559 0.792969C34.847 0.705078 34.9609 0.661133 35.0977 0.661133C35.2279 0.661133 35.3402 0.705078 35.4346 0.792969C35.529 0.880859 35.5762 1.01595 35.5762 1.19824C35.5762 1.38053 35.529 1.51725 35.4346 1.6084C35.3402 1.69629 35.2279 1.74023 35.0977 1.74023C34.9609 1.74023 34.847 1.69629 34.7559 1.6084C34.6647 1.51725 34.6191 1.38053 34.6191 1.19824ZM37.9785 2.64844V6.12012C37.9785 6.55632 38.0778 6.88184 38.2764 7.09668C38.4749 7.31152 38.7858 7.41895 39.209 7.41895C39.7689 7.41895 40.1774 7.26595 40.4346 6.95996C40.695 6.65397 40.8252 6.1543 40.8252 5.46094V2.64844H41.6357V8H40.9668L40.8496 7.28223H40.8057C40.6396 7.5459 40.4085 7.74772 40.1123 7.8877C39.8193 8.02767 39.484 8.09766 39.1064 8.09766C38.4554 8.09766 37.9671 7.94303 37.6416 7.63379C37.3193 7.32454 37.1582 6.82975 37.1582 6.14941V2.64844H37.9785ZM40.918 9.16211C40.918 9.4681 41.071 9.62109 41.377 9.62109C41.5137 9.62109 41.6715 9.59993 41.8506 9.55762V10.0898C41.639 10.1484 41.4355 10.1777 41.2402 10.1777C40.5664 10.1777 40.2295 9.87174 40.2295 9.25977C40.2295 9.0319 40.2995 8.80729 40.4395 8.58594C40.5794 8.36784 40.7666 8.17253 41.001 8H41.5869C41.3656 8.21484 41.1979 8.41016 41.084 8.58594C40.9733 8.76497 40.918 8.95703 40.918 9.16211ZM43.2422 7.48242C43.2422 7.26432 43.291 7.09993 43.3887 6.98926C43.4896 6.87533 43.6328 6.81836 43.8184 6.81836C44.0072 6.81836 44.1536 6.87533 44.2578 6.98926C44.3652 7.09993 44.4189 7.26432 44.4189 7.48242C44.4189 7.69401 44.3652 7.85677 44.2578 7.9707C44.1504 8.08464 44.0039 8.1416 43.8184 8.1416C43.6523 8.1416 43.514 8.09115 43.4033 7.99023C43.2959 7.88607 43.2422 7.7168 43.2422 7.48242ZM43.2422 3.1709C43.2422 2.73145 43.4342 2.51172 43.8184 2.51172C44.2188 2.51172 44.4189 2.73145 44.4189 3.1709C44.4189 3.38249 44.3652 3.54525 44.2578 3.65918C44.1504 3.77311 44.0039 3.83008 43.8184 3.83008C43.6523 3.83008 43.514 3.77962 43.4033 3.67871C43.2959 3.57454 43.2422 3.40527 43.2422 3.1709ZM53.1543 8H48.1641V6.9502L49.9561 5.13867C50.4867 4.59505 50.8333 4.21908 50.9961 4.01074C51.1589 3.79915 51.276 3.60384 51.3477 3.4248C51.4193 3.24577 51.4551 3.06022 51.4551 2.86816C51.4551 2.58171 51.3753 2.36849 51.2158 2.22852C51.0596 2.08854 50.8496 2.01855 50.5859 2.01855C50.3092 2.01855 50.0407 2.08203 49.7803 2.20898C49.5199 2.33594 49.248 2.5166 48.9648 2.75098L48.1445 1.7793C48.4961 1.47982 48.7874 1.26823 49.0186 1.14453C49.2497 1.02083 49.502 0.926432 49.7754 0.861328C50.0488 0.792969 50.3548 0.758789 50.6934 0.758789C51.1393 0.758789 51.5332 0.840169 51.875 1.00293C52.2168 1.16569 52.4821 1.39355 52.6709 1.68652C52.8597 1.97949 52.9541 2.31478 52.9541 2.69238C52.9541 3.02116 52.8955 3.3304 52.7783 3.62012C52.6644 3.90658 52.4854 4.20117 52.2412 4.50391C52.0003 4.80664 51.5739 5.23796 50.9619 5.79785L50.0439 6.66211V6.73047H53.1543V8ZM58.1543 8L56.0742 2.54102H57.6318L58.6865 5.65137C58.8037 6.04525 58.877 6.41797 58.9062 6.76953H58.9355C58.9518 6.45703 59.0251 6.08431 59.1553 5.65137L60.2051 2.54102H61.7627L59.6826 8H58.1543ZM67.5879 8H66.0986V4.81152C66.0986 4.41764 66.0286 4.12305 65.8887 3.92773C65.7487 3.72917 65.5257 3.62988 65.2197 3.62988C64.8031 3.62988 64.502 3.76986 64.3164 4.0498C64.1309 4.3265 64.0381 4.78711 64.0381 5.43164V8H62.5488V2.54102H63.6865L63.8867 3.23926H63.9697C64.1357 2.97559 64.3636 2.77702 64.6533 2.64355C64.9463 2.50684 65.2783 2.43848 65.6494 2.43848C66.2842 2.43848 66.766 2.611 67.0947 2.95605C67.4235 3.29785 67.5879 3.79264 67.5879 4.44043V8ZM71.4209 6.91113C71.6813 6.91113 71.9938 6.85417 72.3584 6.74023V7.84863C71.9873 8.01465 71.5316 8.09766 70.9912 8.09766C70.3955 8.09766 69.9609 7.94792 69.6875 7.64844C69.4173 7.3457 69.2822 6.89323 69.2822 6.29102V3.65918H68.5693V3.0293L69.3896 2.53125L69.8193 1.37891H70.7715V2.54102H72.2998V3.65918H70.7715V6.29102C70.7715 6.5026 70.8301 6.65885 70.9473 6.75977C71.0677 6.86068 71.2256 6.91113 71.4209 6.91113ZM73.2568 7.30176C73.2568 7.02832 73.3301 6.82161 73.4766 6.68164C73.623 6.54167 73.8363 6.47168 74.1162 6.47168C74.3864 6.47168 74.5947 6.54329 74.7412 6.68652C74.891 6.82975 74.9658 7.03483 74.9658 7.30176C74.9658 7.55892 74.891 7.76237 74.7412 7.91211C74.5915 8.05859 74.3831 8.13184 74.1162 8.13184C73.8428 8.13184 73.6312 8.06022 73.4814 7.91699C73.3317 7.77051 73.2568 7.56543 73.2568 7.30176Z" fill="black"/>
</svg>
