<svg width="55" height="11" viewBox="0 0 55 11" fill="none" xmlns="http://www.w3.org/2000/svg">
<path d="M4.14062 8L1.71875 1.67188H1.67969C1.72526 2.17318 1.74805 2.76888 1.74805 3.45898V8H0.981445V0.861328H2.23145L4.49219 6.75H4.53125L6.81152 0.861328H8.05176V8H7.22168V3.40039C7.22168 2.87305 7.24447 2.30013 7.29004 1.68164H7.25098L4.80957 8H4.14062ZM10.7031 8H9.89258V2.64844H10.7031V8ZM9.82422 1.19824C9.82422 1.0127 9.86979 0.877604 9.96094 0.792969C10.0521 0.705078 10.166 0.661133 10.3027 0.661133C10.4329 0.661133 10.5452 0.705078 10.6396 0.792969C10.734 0.880859 10.7812 1.01595 10.7812 1.19824C10.7812 1.38053 10.734 1.51725 10.6396 1.6084C10.5452 1.69629 10.4329 1.74023 10.3027 1.74023C10.166 1.74023 10.0521 1.69629 9.96094 1.6084C9.86979 1.51725 9.82422 1.38053 9.82422 1.19824ZM13.2324 8H12.4219V0.402344H13.2324V8ZM16.6797 7.42871C16.8229 7.42871 16.9613 7.41895 17.0947 7.39941C17.2282 7.37663 17.334 7.35384 17.4121 7.33105V7.95117C17.3242 7.99349 17.194 8.02767 17.0215 8.05371C16.8522 8.08301 16.6992 8.09766 16.5625 8.09766C15.5273 8.09766 15.0098 7.55241 15.0098 6.46191V3.27832H14.2432V2.8877L15.0098 2.55078L15.3516 1.4082H15.8203V2.64844H17.373V3.27832H15.8203V6.42773C15.8203 6.75 15.8968 6.9974 16.0498 7.16992C16.2028 7.34245 16.4128 7.42871 16.6797 7.42871ZM19.248 2.64844V6.12012C19.248 6.55632 19.3473 6.88184 19.5459 7.09668C19.7445 7.31152 20.0553 7.41895 20.4785 7.41895C21.0384 7.41895 21.4469 7.26595 21.7041 6.95996C21.9645 6.65397 22.0947 6.1543 22.0947 5.46094V2.64844H22.9053V8H22.2363L22.1191 7.28223H22.0752C21.9092 7.5459 21.6781 7.74772 21.3818 7.8877C21.0889 8.02767 20.7536 8.09766 20.376 8.09766C19.7249 8.09766 19.2367 7.94303 18.9111 7.63379C18.5889 7.32454 18.4277 6.82975 18.4277 6.14941V2.64844H19.248ZM22.1875 9.16211C22.1875 9.4681 22.3405 9.62109 22.6465 9.62109C22.7832 9.62109 22.9411 9.59993 23.1201 9.55762V10.0898C22.9085 10.1484 22.7051 10.1777 22.5098 10.1777C21.8359 10.1777 21.499 9.87174 21.499 9.25977C21.499 9.0319 21.569 8.80729 21.709 8.58594C21.849 8.36784 22.0361 8.17253 22.2705 8H22.8564C22.6351 8.21484 22.4674 8.41016 22.3535 8.58594C22.2428 8.76497 22.1875 8.95703 22.1875 9.16211ZM24.5117 7.48242C24.5117 7.26432 24.5605 7.09993 24.6582 6.98926C24.7591 6.87533 24.9023 6.81836 25.0879 6.81836C25.2767 6.81836 25.4232 6.87533 25.5273 6.98926C25.6348 7.09993 25.6885 7.26432 25.6885 7.48242C25.6885 7.69401 25.6348 7.85677 25.5273 7.9707C25.4199 8.08464 25.2734 8.1416 25.0879 8.1416C24.9219 8.1416 24.7835 8.09115 24.6729 7.99023C24.5654 7.88607 24.5117 7.7168 24.5117 7.48242ZM24.5117 3.1709C24.5117 2.73145 24.7038 2.51172 25.0879 2.51172C25.4883 2.51172 25.6885 2.73145 25.6885 3.1709C25.6885 3.38249 25.6348 3.54525 25.5273 3.65918C25.4199 3.77311 25.2734 3.83008 25.0879 3.83008C24.9219 3.83008 24.7835 3.77962 24.6729 3.67871C24.5654 3.57454 24.5117 3.40527 24.5117 3.1709ZM32.0312 3.43945C32.7214 3.43945 33.2699 3.63314 33.6768 4.02051C34.0869 4.40788 34.292 4.93848 34.292 5.6123C34.292 6.40983 34.0462 7.02344 33.5547 7.45312C33.0632 7.88281 32.36 8.09766 31.4453 8.09766C30.651 8.09766 30.0098 7.96908 29.5215 7.71191V6.4082C29.7786 6.54492 30.0781 6.65723 30.4199 6.74512C30.7617 6.82975 31.0856 6.87207 31.3916 6.87207C32.3128 6.87207 32.7734 6.49447 32.7734 5.73926C32.7734 5.01986 32.2965 4.66016 31.3428 4.66016C31.1702 4.66016 30.9798 4.67806 30.7715 4.71387C30.5632 4.74642 30.3939 4.78223 30.2637 4.82129L29.6631 4.49902L29.9316 0.861328H33.8037V2.14062H31.2549L31.123 3.54199L31.2939 3.50781C31.4925 3.46224 31.7383 3.43945 32.0312 3.43945ZM40.0977 4.43066C40.0977 5.67741 39.8926 6.60026 39.4824 7.19922C39.0755 7.79818 38.4473 8.09766 37.5977 8.09766C36.7741 8.09766 36.1523 7.78841 35.7324 7.16992C35.3158 6.55143 35.1074 5.63835 35.1074 4.43066C35.1074 3.1709 35.3109 2.24316 35.7178 1.64746C36.1247 1.0485 36.7513 0.749023 37.5977 0.749023C38.4212 0.749023 39.043 1.06152 39.4629 1.68652C39.8861 2.31152 40.0977 3.22624 40.0977 4.43066ZM36.6064 4.43066C36.6064 5.30632 36.6813 5.93457 36.8311 6.31543C36.984 6.69303 37.2396 6.88184 37.5977 6.88184C37.9492 6.88184 38.2031 6.68978 38.3594 6.30566C38.5156 5.92155 38.5938 5.29655 38.5938 4.43066C38.5938 3.55501 38.514 2.92676 38.3545 2.5459C38.1982 2.16178 37.946 1.96973 37.5977 1.96973C37.2428 1.96973 36.9889 2.16178 36.8359 2.5459C36.6829 2.92676 36.6064 3.55501 36.6064 4.43066ZM45.8105 4.43066C45.8105 5.67741 45.6055 6.60026 45.1953 7.19922C44.7884 7.79818 44.1602 8.09766 43.3105 8.09766C42.487 8.09766 41.8652 7.78841 41.4453 7.16992C41.0286 6.55143 40.8203 5.63835 40.8203 4.43066C40.8203 3.1709 41.0238 2.24316 41.4307 1.64746C41.8376 1.0485 42.4642 0.749023 43.3105 0.749023C44.1341 0.749023 44.7559 1.06152 45.1758 1.68652C45.599 2.31152 45.8105 3.22624 45.8105 4.43066ZM42.3193 4.43066C42.3193 5.30632 42.3942 5.93457 42.5439 6.31543C42.6969 6.69303 42.9525 6.88184 43.3105 6.88184C43.6621 6.88184 43.916 6.68978 44.0723 6.30566C44.2285 5.92155 44.3066 5.29655 44.3066 4.43066C44.3066 3.55501 44.2269 2.92676 44.0674 2.5459C43.9111 2.16178 43.6589 1.96973 43.3105 1.96973C42.9557 1.96973 42.7018 2.16178 42.5488 2.5459C42.3958 2.92676 42.3193 3.55501 42.3193 4.43066ZM54.3018 2.54102V3.29785L53.4473 3.51758C53.6035 3.76172 53.6816 4.03516 53.6816 4.33789C53.6816 4.92383 53.4766 5.38118 53.0664 5.70996C52.6595 6.03548 52.0931 6.19824 51.3672 6.19824L51.0986 6.18359L50.8789 6.15918C50.7259 6.27637 50.6494 6.40658 50.6494 6.5498C50.6494 6.76465 50.9229 6.87207 51.4697 6.87207H52.3975C52.9964 6.87207 53.4521 7.00065 53.7646 7.25781C54.0804 7.51497 54.2383 7.89258 54.2383 8.39062C54.2383 9.02865 53.9714 9.52344 53.4375 9.875C52.9069 10.2266 52.1436 10.4023 51.1475 10.4023C50.3857 10.4023 49.8031 10.2689 49.3994 10.002C48.999 9.73828 48.7988 9.36719 48.7988 8.88867C48.7988 8.5599 48.9014 8.28483 49.1064 8.06348C49.3115 7.84212 49.6126 7.68424 50.0098 7.58984C49.8568 7.52474 49.7233 7.41895 49.6094 7.27246C49.4954 7.12272 49.4385 6.96484 49.4385 6.79883C49.4385 6.59049 49.4987 6.41797 49.6191 6.28125C49.7396 6.14128 49.9137 6.00456 50.1416 5.87109C49.8551 5.7474 49.6273 5.54883 49.458 5.27539C49.292 5.00195 49.209 4.67969 49.209 4.30859C49.209 3.71289 49.4027 3.25228 49.79 2.92676C50.1774 2.60124 50.7308 2.43848 51.4502 2.43848C51.6032 2.43848 51.7839 2.45312 51.9922 2.48242C52.2038 2.50846 52.3389 2.52799 52.3975 2.54102H54.3018ZM50.0879 8.77148C50.0879 8.97656 50.1855 9.1377 50.3809 9.25488C50.5794 9.37207 50.8561 9.43066 51.2109 9.43066C51.7448 9.43066 52.1631 9.35742 52.4658 9.21094C52.7686 9.06445 52.9199 8.86426 52.9199 8.61035C52.9199 8.40527 52.8304 8.26367 52.6514 8.18555C52.4723 8.10742 52.1956 8.06836 51.8213 8.06836H51.0498C50.7764 8.06836 50.5469 8.13184 50.3613 8.25879C50.179 8.389 50.0879 8.5599 50.0879 8.77148ZM50.6299 4.32812C50.6299 4.62435 50.6966 4.85872 50.8301 5.03125C50.9668 5.20378 51.1735 5.29004 51.4502 5.29004C51.7301 5.29004 51.9352 5.20378 52.0654 5.03125C52.1956 4.85872 52.2607 4.62435 52.2607 4.32812C52.2607 3.67057 51.9906 3.3418 51.4502 3.3418C50.9033 3.3418 50.6299 3.67057 50.6299 4.32812Z" fill="black"/>
</svg>
