<svg width="68" height="11" viewBox="0 0 68 11" fill="none" xmlns="http://www.w3.org/2000/svg">
<path d="M4.14062 8L1.71875 1.67188H1.67969C1.72526 2.17318 1.74805 2.76888 1.74805 3.45898V8H0.981445V0.861328H2.23145L4.49219 6.75H4.53125L6.81152 0.861328H8.05176V8H7.22168V3.40039C7.22168 2.87305 7.24447 2.30013 7.29004 1.68164H7.25098L4.80957 8H4.14062ZM12.1533 8.09766C11.3623 8.09766 10.7373 7.85677 10.2783 7.375C9.82259 6.89323 9.59473 6.22428 9.59473 5.36816C9.59473 4.50553 9.80632 3.82031 10.2295 3.3125C10.6559 2.80469 11.2272 2.55078 11.9434 2.55078C12.6139 2.55078 13.1445 2.77214 13.5352 3.21484C13.9258 3.6543 14.1211 4.23535 14.1211 4.95801V5.4707H10.4346C10.4508 6.09896 10.6087 6.57585 10.9082 6.90137C11.2109 7.22689 11.6357 7.38965 12.1826 7.38965C12.7588 7.38965 13.3285 7.26921 13.8916 7.02832V7.75098C13.6051 7.87467 13.3333 7.96257 13.0762 8.01465C12.8223 8.06999 12.5146 8.09766 12.1533 8.09766ZM11.9336 3.22949C11.5039 3.22949 11.1605 3.36947 10.9033 3.64941C10.6494 3.92936 10.4997 4.31673 10.4541 4.81152H13.252C13.252 4.30046 13.138 3.90983 12.9102 3.63965C12.6823 3.36621 12.3568 3.22949 11.9336 3.22949ZM11.4844 1.19824C11.4844 1.0127 11.5299 0.877604 11.6211 0.792969C11.7122 0.705078 11.8262 0.661133 11.9629 0.661133C12.0931 0.661133 12.2054 0.705078 12.2998 0.792969C12.3942 0.880859 12.4414 1.01595 12.4414 1.19824C12.4414 1.38053 12.3942 1.51725 12.2998 1.6084C12.2054 1.69629 12.0931 1.74023 11.9629 1.74023C11.8262 1.74023 11.7122 1.69629 11.6211 1.6084C11.5299 1.51725 11.4844 1.38053 11.4844 1.19824ZM16.3184 8H15.5078V0.402344H16.3184V8ZM17.1875 2.64844H18.0566L19.2285 5.7002C19.4857 6.39681 19.6452 6.89974 19.707 7.20898H19.7461C19.7884 7.04297 19.8763 6.75977 20.0098 6.35938C20.1465 5.95573 20.5892 4.71875 21.3379 2.64844H22.207L19.9072 8.74219C19.6794 9.3444 19.4124 9.77083 19.1064 10.0215C18.8037 10.2754 18.431 10.4023 17.9883 10.4023C17.7409 10.4023 17.4967 10.3747 17.2559 10.3193V9.66992C17.4349 9.70898 17.6351 9.72852 17.8564 9.72852C18.4131 9.72852 18.8102 9.41602 19.0479 8.79102L19.3457 8.0293L17.1875 2.64844ZM26.7383 8V4.53809C26.7383 4.10189 26.639 3.77637 26.4404 3.56152C26.2419 3.34668 25.931 3.23926 25.5078 3.23926C24.9479 3.23926 24.5378 3.39062 24.2773 3.69336C24.0169 3.99609 23.8867 4.49577 23.8867 5.19238V8H23.0762V2.64844H23.7354L23.8672 3.38086H23.9062C24.0723 3.11719 24.305 2.91374 24.6045 2.77051C24.904 2.62402 25.2376 2.55078 25.6055 2.55078C26.25 2.55078 26.735 2.70703 27.0605 3.01953C27.3861 3.32878 27.5488 3.8252 27.5488 4.50879V8H26.7383ZM30.0293 8H29.2188V2.64844H30.0293V8ZM29.1504 1.19824C29.1504 1.0127 29.196 0.877604 29.2871 0.792969C29.3783 0.705078 29.4922 0.661133 29.6289 0.661133C29.7591 0.661133 29.8714 0.705078 29.9658 0.792969C30.0602 0.880859 30.1074 1.01595 30.1074 1.19824C30.1074 1.38053 30.0602 1.51725 29.9658 1.6084C29.8714 1.69629 29.7591 1.74023 29.6289 1.74023C29.4922 1.74023 29.3783 1.69629 29.2871 1.6084C29.196 1.51725 29.1504 1.38053 29.1504 1.19824ZM32.5098 2.64844V6.12012C32.5098 6.55632 32.609 6.88184 32.8076 7.09668C33.0062 7.31152 33.3171 7.41895 33.7402 7.41895C34.3001 7.41895 34.7087 7.26595 34.9658 6.95996C35.2262 6.65397 35.3564 6.1543 35.3564 5.46094V2.64844H36.167V8H35.498L35.3809 7.28223H35.3369C35.1709 7.5459 34.9398 7.74772 34.6436 7.8877C34.3506 8.02767 34.0153 8.09766 33.6377 8.09766C32.9867 8.09766 32.4984 7.94303 32.1729 7.63379C31.8506 7.32454 31.6895 6.82975 31.6895 6.14941V2.64844H32.5098ZM35.4492 9.16211C35.4492 9.4681 35.6022 9.62109 35.9082 9.62109C36.0449 9.62109 36.2028 9.59993 36.3818 9.55762V10.0898C36.1702 10.1484 35.9668 10.1777 35.7715 10.1777C35.0977 10.1777 34.7607 9.87174 34.7607 9.25977C34.7607 9.0319 34.8307 8.80729 34.9707 8.58594C35.1107 8.36784 35.2979 8.17253 35.5322 8H36.1182C35.8968 8.21484 35.7292 8.41016 35.6152 8.58594C35.5046 8.76497 35.4492 8.95703 35.4492 9.16211ZM37.7734 7.48242C37.7734 7.26432 37.8223 7.09993 37.9199 6.98926C38.0208 6.87533 38.1641 6.81836 38.3496 6.81836C38.5384 6.81836 38.6849 6.87533 38.7891 6.98926C38.8965 7.09993 38.9502 7.26432 38.9502 7.48242C38.9502 7.69401 38.8965 7.85677 38.7891 7.9707C38.6816 8.08464 38.5352 8.1416 38.3496 8.1416C38.1836 8.1416 38.0452 8.09115 37.9346 7.99023C37.8271 7.88607 37.7734 7.7168 37.7734 7.48242ZM37.7734 3.1709C37.7734 2.73145 37.9655 2.51172 38.3496 2.51172C38.75 2.51172 38.9502 2.73145 38.9502 3.1709C38.9502 3.38249 38.8965 3.54525 38.7891 3.65918C38.6816 3.77311 38.5352 3.83008 38.3496 3.83008C38.1836 3.83008 38.0452 3.77962 37.9346 3.67871C37.8271 3.57454 37.7734 3.40527 37.7734 3.1709ZM46.4258 8H44.917V3.86914L44.9316 3.19043L44.9561 2.44824C44.7054 2.69889 44.5312 2.86328 44.4336 2.94141L43.6133 3.60059L42.8857 2.69238L45.1855 0.861328H46.4258V8ZM53.3594 4.43066C53.3594 5.67741 53.1543 6.60026 52.7441 7.19922C52.3372 7.79818 51.709 8.09766 50.8594 8.09766C50.0358 8.09766 49.4141 7.78841 48.9941 7.16992C48.5775 6.55143 48.3691 5.63835 48.3691 4.43066C48.3691 3.1709 48.5726 2.24316 48.9795 1.64746C49.3864 1.0485 50.013 0.749023 50.8594 0.749023C51.6829 0.749023 52.3047 1.06152 52.7246 1.68652C53.1478 2.31152 53.3594 3.22624 53.3594 4.43066ZM49.8682 4.43066C49.8682 5.30632 49.943 5.93457 50.0928 6.31543C50.2458 6.69303 50.5013 6.88184 50.8594 6.88184C51.2109 6.88184 51.4648 6.68978 51.6211 6.30566C51.7773 5.92155 51.8555 5.29655 51.8555 4.43066C51.8555 3.55501 51.7757 2.92676 51.6162 2.5459C51.46 2.16178 51.2077 1.96973 50.8594 1.96973C50.5046 1.96973 50.2507 2.16178 50.0977 2.5459C49.9447 2.92676 49.8682 3.55501 49.8682 4.43066ZM59.0723 4.43066C59.0723 5.67741 58.8672 6.60026 58.457 7.19922C58.0501 7.79818 57.4219 8.09766 56.5723 8.09766C55.7487 8.09766 55.127 7.78841 54.707 7.16992C54.2904 6.55143 54.082 5.63835 54.082 4.43066C54.082 3.1709 54.2855 2.24316 54.6924 1.64746C55.0993 1.0485 55.7259 0.749023 56.5723 0.749023C57.3958 0.749023 58.0176 1.06152 58.4375 1.68652C58.8607 2.31152 59.0723 3.22624 59.0723 4.43066ZM55.5811 4.43066C55.5811 5.30632 55.6559 5.93457 55.8057 6.31543C55.9587 6.69303 56.2142 6.88184 56.5723 6.88184C56.9238 6.88184 57.1777 6.68978 57.334 6.30566C57.4902 5.92155 57.5684 5.29655 57.5684 4.43066C57.5684 3.55501 57.4886 2.92676 57.3291 2.5459C57.1729 2.16178 56.9206 1.96973 56.5723 1.96973C56.2174 1.96973 55.9635 2.16178 55.8105 2.5459C55.6576 2.92676 55.5811 3.55501 55.5811 4.43066ZM67.5635 2.54102V3.29785L66.709 3.51758C66.8652 3.76172 66.9434 4.03516 66.9434 4.33789C66.9434 4.92383 66.7383 5.38118 66.3281 5.70996C65.9212 6.03548 65.3548 6.19824 64.6289 6.19824L64.3604 6.18359L64.1406 6.15918C63.9876 6.27637 63.9111 6.40658 63.9111 6.5498C63.9111 6.76465 64.1846 6.87207 64.7314 6.87207H65.6592C66.2581 6.87207 66.7139 7.00065 67.0264 7.25781C67.3421 7.51497 67.5 7.89258 67.5 8.39062C67.5 9.02865 67.2331 9.52344 66.6992 9.875C66.1686 10.2266 65.4053 10.4023 64.4092 10.4023C63.6475 10.4023 63.0648 10.2689 62.6611 10.002C62.2607 9.73828 62.0605 9.36719 62.0605 8.88867C62.0605 8.5599 62.1631 8.28483 62.3682 8.06348C62.5732 7.84212 62.8743 7.68424 63.2715 7.58984C63.1185 7.52474 62.985 7.41895 62.8711 7.27246C62.7572 7.12272 62.7002 6.96484 62.7002 6.79883C62.7002 6.59049 62.7604 6.41797 62.8809 6.28125C63.0013 6.14128 63.1755 6.00456 63.4033 5.87109C63.1169 5.7474 62.889 5.54883 62.7197 5.27539C62.5537 5.00195 62.4707 4.67969 62.4707 4.30859C62.4707 3.71289 62.6644 3.25228 63.0518 2.92676C63.4391 2.60124 63.9925 2.43848 64.7119 2.43848C64.8649 2.43848 65.0456 2.45312 65.2539 2.48242C65.4655 2.50846 65.6006 2.52799 65.6592 2.54102H67.5635ZM63.3496 8.77148C63.3496 8.97656 63.4473 9.1377 63.6426 9.25488C63.8411 9.37207 64.1178 9.43066 64.4727 9.43066C65.0065 9.43066 65.4248 9.35742 65.7275 9.21094C66.0303 9.06445 66.1816 8.86426 66.1816 8.61035C66.1816 8.40527 66.0921 8.26367 65.9131 8.18555C65.734 8.10742 65.4574 8.06836 65.083 8.06836H64.3115C64.0381 8.06836 63.8086 8.13184 63.623 8.25879C63.4408 8.389 63.3496 8.5599 63.3496 8.77148ZM63.8916 4.32812C63.8916 4.62435 63.9583 4.85872 64.0918 5.03125C64.2285 5.20378 64.4352 5.29004 64.7119 5.29004C64.9919 5.29004 65.1969 5.20378 65.3271 5.03125C65.4574 4.85872 65.5225 4.62435 65.5225 4.32812C65.5225 3.67057 65.2523 3.3418 64.7119 3.3418C64.165 3.3418 63.8916 3.67057 63.8916 4.32812Z" fill="black"/>
</svg>
